<svg viewBox="0 0 200 46" xmlns="http://www.w3.org/2000/svg"><rect x="-5" y="-5" width="220" height="320" fill="#FAFAF7"/><defs><marker id="ah" markerWidth="6" markerHeight="6" refX="4.6" refY="2.5" orient="auto"><path d="M0,0 L5,2.5 L0,5 Z" fill="#1E2A44"/></marker></defs><rect x="2" y="12" width="42" height="22" rx="2.6" fill="#FFFFFF" stroke="#E4E2DA" stroke-width="0.6"/><text x="23.0" y="20.0" text-anchor="middle" font-family="Hanken Grotesk, system-ui, Arial, sans-serif" font-weight="600" font-size="3.3" fill="#16181D">Input</text><text x="23.0" y="24.0" text-anchor="middle" font-family="Hanken Grotesk, system-ui, Arial, sans-serif" font-weight="600" font-size="3.3" fill="#16181D">pattern</text><text x="23.0" y="28.2" text-anchor="middle" font-family="IBM Plex Mono, ui-monospace, monospace" font-size="2.5" fill="#5B6068">/try form</text><rect x="56" y="12" width="44" height="22" rx="2.6" fill="#E6F1EF" stroke="#2F8F83" stroke-width="0.6"/><text x="78.0" y="22.0" text-anchor="middle" font-family="Hanken Grotesk, system-ui, Arial, sans-serif" font-weight="600" font-size="3.3" fill="#16181D">POST /predict</text><text x="78.0" y="26.2" text-anchor="middle" font-family="IBM Plex Mono, ui-monospace, monospace" font-size="2.5" fill="#5B6068">over HTTPS</text><rect x="114" y="3" width="46" height="17" rx="2.6" fill="#FFF3E6" stroke="#E4E2DA" stroke-width="0.6"/><text x="137.0" y="10.5" text-anchor="middle" font-family="Hanken Grotesk, system-ui, Arial, sans-serif" font-weight="600" font-size="3.3" fill="#16181D">Model score</text><text x="137.0" y="14.7" text-anchor="middle" font-family="IBM Plex Mono, ui-monospace, monospace" font-size="2.5" fill="#5B6068">+ up/down factors</text><rect x="114" y="27" width="46" height="16" rx="2.6" fill="#FFFFFF" stroke="#E4E2DA" stroke-width="0.6"/><text x="137.0" y="34.0" text-anchor="middle" font-family="Hanken Grotesk, system-ui, Arial, sans-serif" font-weight="600" font-size="3.3" fill="#16181D">Rendered once</text><text x="137.0" y="38.2" text-anchor="middle" font-family="IBM Plex Mono, ui-monospace, monospace" font-size="2.5" fill="#5B6068">then dropped</text><rect x="172" y="13" width="26" height="20" rx="2.6" fill="#FBE9E4" stroke="#C2614E" stroke-width="0.7" stroke-dasharray="2 1.5"/><text x="185" y="22" text-anchor="middle" font-family="Hanken Grotesk, system-ui, Arial, sans-serif" font-weight="700" font-size="3.6" fill="#C2614E">No DB</text><text x="185" y="27" text-anchor="middle" font-family="IBM Plex Mono, ui-monospace, monospace" font-size="2.4" fill="#C2614E">no storage</text><line x1="44" y1="23" x2="55" y2="23" stroke="#1E2A44" stroke-width="0.7" marker-end="url(#ah)"/><line x1="100" y1="18" x2="113" y2="12" stroke="#1E2A44" stroke-width="0.7" marker-end="url(#ah)"/><line x1="100" y1="28" x2="113" y2="34" stroke="#1E2A44" stroke-width="0.7" marker-end="url(#ah)"/><line x1="160" y1="23" x2="171" y2="23" stroke="#C2614E" stroke-width="0.7" stroke-dasharray="2 1.5"/><line x1="166" y1="17" x2="176" y2="29" stroke="#C2614E" stroke-width="1.0"/></svg>