<svg viewBox="0 0 200 50" xmlns="http://www.w3.org/2000/svg"><rect x="-5" y="-5" width="220" height="320" fill="#FAFAF7"/><defs><marker id="ah" markerWidth="6" markerHeight="6" refX="4.6" refY="2.5" orient="auto"><path d="M0,0 L5,2.5 L0,5 Z" fill="#1E2A44"/></marker></defs><text x="48" y="5" text-anchor="middle" font-family="IBM Plex Mono, ui-monospace, monospace" font-size="5" fill="#277A6F" letter-spacing="0.5">DISCRIMINATION — ranking</text><rect x="10" y="34.0" width="5" height="4.0" fill="#2F8F83" opacity="0.85"/><rect x="17" y="33.3" width="5" height="4.7" fill="#2F8F83" opacity="0.85"/><rect x="24" y="32.6" width="5" height="5.4" fill="#2F8F83" opacity="0.85"/><rect x="31" y="31.9" width="5" height="6.1" fill="#2F8F83" opacity="0.85"/><rect x="38" y="31.2" width="5" height="6.8" fill="#2F8F83" opacity="0.85"/><rect x="45" y="30.5" width="5" height="7.5" fill="#2F8F83" opacity="0.85"/><rect x="52" y="29.8" width="5" height="8.2" fill="#C2614E" opacity="0.85"/><rect x="59" y="29.1" width="5" height="8.899999999999999" fill="#C2614E" opacity="0.85"/><rect x="66" y="28.4" width="5" height="9.6" fill="#C2614E" opacity="0.85"/><rect x="73" y="27.7" width="5" height="10.3" fill="#C2614E" opacity="0.85"/><rect x="80" y="27.0" width="5" height="11.0" fill="#C2614E" opacity="0.85"/><rect x="87" y="26.3" width="5" height="11.7" fill="#C2614E" opacity="0.85"/><line x1="8" y1="38" x2="96" y2="38" stroke="#D5D3C9" stroke-width="0.7"/><text x="48" y="44" text-anchor="middle" font-family="Hanken Grotesk, system-ui, Arial, sans-serif" font-size="4.3" fill="#5B6068">low scores → high scores (cases separate well = AUC high)</text><text x="152" y="5" text-anchor="middle" font-family="IBM Plex Mono, ui-monospace, monospace" font-size="5" fill="#277A6F" letter-spacing="0.5">CALIBRATION — reliability</text><line x1="114" y1="38" x2="194" y2="8" stroke="#D5D3C9" stroke-width="0.8" stroke-dasharray="2 1.5"/><text x="188" y="13" font-family="IBM Plex Mono, ui-monospace, monospace" font-size="3.6" fill="#9a958c">ideal</text><polyline points="122.0,34.4 138.0,27.8 154.0,23.3 170.0,18.2 186.0,11.6" fill="none" stroke="#2F8F83" stroke-width="1.1"/><polyline points="122.0,29.0 138.0,22.4 154.0,26.0 170.0,25.4 186.0,21.5" fill="none" stroke="#C2614E" stroke-width="1.1"/><text x="114" y="46" font-family="Hanken Grotesk, system-ui, Arial, sans-serif" font-size="4.2" fill="#2F8F83">internal (Brier 0.137)</text><text x="158" y="46" font-family="Hanken Grotesk, system-ui, Arial, sans-serif" font-size="4.2" fill="#C2614E">external (drifts up to 0.339)</text></svg>