<svg viewBox="0 0 200 40" xmlns="http://www.w3.org/2000/svg"><rect x="-5" y="-5" width="220" height="320" fill="#FAFAF7"/><defs><marker id="ah" markerWidth="6" markerHeight="6" refX="4.6" refY="2.5" orient="auto"><path d="M0,0 L5,2.5 L0,5 Z" fill="#1E2A44"/></marker></defs><rect x="2" y="11" width="44" height="22" rx="2.6" fill="#FFFFFF" stroke="#E4E2DA" stroke-width="0.6"/><text x="24.0" y="21.0" text-anchor="middle" font-family="Hanken Grotesk, system-ui, Arial, sans-serif" font-weight="600" font-size="3.3" fill="#16181D">Input record</text><text x="24.0" y="25.2" text-anchor="middle" font-family="IBM Plex Mono, ui-monospace, monospace" font-size="2.5" fill="#5B6068">13 features</text><rect x="60" y="11" width="44" height="22" rx="2.6" fill="#E6F1EF" stroke="#2F8F83" stroke-width="0.6"/><text x="82.0" y="21.0" text-anchor="middle" font-family="Hanken Grotesk, system-ui, Arial, sans-serif" font-weight="600" font-size="3.3" fill="#16181D">Frozen model</text><text x="82.0" y="25.2" text-anchor="middle" font-family="IBM Plex Mono, ui-monospace, monospace" font-size="2.5" fill="#5B6068">→ model score</text><rect x="118" y="2" width="78" height="15" rx="2.6" fill="#F2F1EC" stroke="#E4E2DA" stroke-width="0.6"/><text x="157.0" y="8.5" text-anchor="middle" font-family="Hanken Grotesk, system-ui, Arial, sans-serif" font-weight="600" font-size="3.1" fill="#16181D">Marginal contributions</text><text x="157.0" y="12.7" text-anchor="middle" font-family="IBM Plex Mono, ui-monospace, monospace" font-size="2.5" fill="#5B6068">src/patient_report.py</text><rect x="118" y="21" width="38" height="15" rx="2.6" fill="#FBE9E4" stroke="#C2614E" stroke-width="0.6"/><text x="137.0" y="27.5" text-anchor="middle" font-family="Hanken Grotesk, system-ui, Arial, sans-serif" font-weight="600" font-size="3.3" fill="#C2614E">Pushed up ▲</text><text x="137.0" y="31.7" text-anchor="middle" font-family="IBM Plex Mono, ui-monospace, monospace" font-size="2.5" fill="#5B6068">coral</text><rect x="158" y="21" width="38" height="15" rx="2.6" fill="#E6F1EF" stroke="#2F8F83" stroke-width="0.6"/><text x="177.0" y="27.5" text-anchor="middle" font-family="Hanken Grotesk, system-ui, Arial, sans-serif" font-weight="600" font-size="3.3" fill="#277A6F">Pushed down ▼</text><text x="177.0" y="31.7" text-anchor="middle" font-family="IBM Plex Mono, ui-monospace, monospace" font-size="2.5" fill="#5B6068">teal</text><line x1="46" y1="22" x2="59" y2="22" stroke="#1E2A44" stroke-width="0.7" marker-end="url(#ah)"/><line x1="104" y1="22" x2="118" y2="11" stroke="#1E2A44" stroke-width="0.7" marker-end="url(#ah)"/><line x1="137" y1="17" x2="137" y2="20.5" stroke="#1E2A44" stroke-width="0.7" marker-end="url(#ah)"/><line x1="177" y1="17" x2="177" y2="20.5" stroke="#1E2A44" stroke-width="0.7" marker-end="url(#ah)"/></svg>