<svg viewBox="0 0 200 53" xmlns="http://www.w3.org/2000/svg"><rect x="-5" y="-5" width="220" height="320" fill="#FAFAF7"/><defs><marker id="ah" markerWidth="6" markerHeight="6" refX="4.6" refY="2.5" orient="auto"><path d="M0,0 L5,2.5 L0,5 Z" fill="#1E2A44"/></marker></defs><rect x="78" y="3" width="44" height="15" rx="2.6" fill="#1E2A44" stroke="#1E2A44" stroke-width="0.6"/><text x="100.0" y="9.5" text-anchor="middle" font-family="Hanken Grotesk, system-ui, Arial, sans-serif" font-weight="600" font-size="3.3" fill="#FFFFFF">/  Home</text><text x="100.0" y="13.7" text-anchor="middle" font-family="IBM Plex Mono, ui-monospace, monospace" font-size="2.5" fill="#AEB7C6">CardioLens</text><line x1="100" y1="18" x2="16.5" y2="34" stroke="#D5D3C9" stroke-width="0.6"/><rect x="2.0" y="34" width="29" height="15" rx="2.6" fill="#FFFFFF" stroke="#E4E2DA" stroke-width="0.6"/><text x="16.5" y="40.5" text-anchor="middle" font-family="Hanken Grotesk, system-ui, Arial, sans-serif" font-weight="600" font-size="3.3" fill="#277A6F">/try</text><text x="16.5" y="44.7" text-anchor="middle" font-family="IBM Plex Mono, ui-monospace, monospace" font-size="2.5" fill="#5B6068">demo</text><line x1="100" y1="18" x2="49.9" y2="34" stroke="#D5D3C9" stroke-width="0.6"/><rect x="35.4" y="34" width="29" height="15" rx="2.6" fill="#FFFFFF" stroke="#E4E2DA" stroke-width="0.6"/><text x="49.9" y="40.5" text-anchor="middle" font-family="Hanken Grotesk, system-ui, Arial, sans-serif" font-weight="600" font-size="3.3" fill="#277A6F">/results</text><text x="49.9" y="44.7" text-anchor="middle" font-family="IBM Plex Mono, ui-monospace, monospace" font-size="2.5" fill="#5B6068">internal</text><line x1="100" y1="18" x2="83.3" y2="34" stroke="#D5D3C9" stroke-width="0.6"/><rect x="68.8" y="34" width="29" height="15" rx="2.6" fill="#FFFFFF" stroke="#E4E2DA" stroke-width="0.6"/><text x="83.3" y="40.5" text-anchor="middle" font-family="Hanken Grotesk, system-ui, Arial, sans-serif" font-weight="600" font-size="3.3" fill="#277A6F">/external</text><text x="83.3" y="44.7" text-anchor="middle" font-family="IBM Plex Mono, ui-monospace, monospace" font-size="2.5" fill="#5B6068">stress</text><line x1="100" y1="18" x2="116.7" y2="34" stroke="#D5D3C9" stroke-width="0.6"/><rect x="102.19999999999999" y="34" width="29" height="15" rx="2.6" fill="#FFFFFF" stroke="#E4E2DA" stroke-width="0.6"/><text x="116.69999999999999" y="40.5" text-anchor="middle" font-family="Hanken Grotesk, system-ui, Arial, sans-serif" font-weight="600" font-size="3.3" fill="#277A6F">/thresholds</text><text x="116.69999999999999" y="44.7" text-anchor="middle" font-family="IBM Plex Mono, ui-monospace, monospace" font-size="2.5" fill="#5B6068">operating</text><line x1="100" y1="18" x2="150.1" y2="34" stroke="#D5D3C9" stroke-width="0.6"/><rect x="135.6" y="34" width="29" height="15" rx="2.6" fill="#FFFFFF" stroke="#E4E2DA" stroke-width="0.6"/><text x="150.1" y="40.5" text-anchor="middle" font-family="Hanken Grotesk, system-ui, Arial, sans-serif" font-weight="600" font-size="3.3" fill="#277A6F">/transparency</text><text x="150.1" y="44.7" text-anchor="middle" font-family="IBM Plex Mono, ui-monospace, monospace" font-size="2.5" fill="#5B6068">cards</text><line x1="100" y1="18" x2="183.5" y2="34" stroke="#D5D3C9" stroke-width="0.6"/><rect x="169.0" y="34" width="29" height="15" rx="2.6" fill="#FFFFFF" stroke="#E4E2DA" stroke-width="0.6"/><text x="183.5" y="40.5" text-anchor="middle" font-family="Hanken Grotesk, system-ui, Arial, sans-serif" font-weight="600" font-size="3.3" fill="#277A6F">/about</text><text x="183.5" y="44.7" text-anchor="middle" font-family="IBM Plex Mono, ui-monospace, monospace" font-size="2.5" fill="#5B6068">limits</text></svg>